<?xml version="1.0" encoding="utf-8"?>
<!-- Generator: Adobe Illustrator 17.1.0, SVG Export Plug-In . SVG Version: 6.00 Build 0)  -->
<!DOCTYPE svg PUBLIC "-//W3C//DTD SVG 1.1//EN" "http://www.w3.org/Graphics/SVG/1.1/DTD/svg11.dtd">
<svg version="1.1" id="Capa_1" xmlns="http://www.w3.org/2000/svg" xmlns:xlink="http://www.w3.org/1999/xlink" x="0px" y="0px"
	 viewBox="0 0 595.3 841.9" enable-background="new 0 0 595.3 841.9" xml:space="preserve">
<g>
	<path fill="#0078D7" d="M537.1,547.6l-73.2-73.2c-9.8-9.8-23-15.2-37.1-15.2c-14.6,0-28.5,5.8-38.9,16.2l-28.5,28.5
		c-22.1-12.3-51.6-29.2-82.1-59.8c-30.5-30.5-47.4-59.9-59.8-82.1l28.5-28.5c21.2-21.2,21.6-55.3,1-76l-73.2-73.2
		c-9.8-9.8-23-15.2-37.1-15.2c-14.3,0-27.8,5.5-38.2,15.5c-6.3,5.1-37.8,32.9-49.6,90.3c-16.5,80.4,21.4,157.7,130.5,266.9
		c121.9,121.9,226,131.4,255,131.4c6,0,9.7-0.4,10.7-0.5c56.9-6.7,77.2-31.9,92.1-50.4C556.5,598.5,556.4,567,537.1,547.6z
		 M512.8,602.7c-14,17.3-27.2,33.7-71.3,38.9c0,0-2.4,0.3-7,0.3c-25.9,0-119.4-8.8-232.8-122.2C101,418.9,65.7,349.9,79.7,281.3
		c10.3-50.1,37.5-71.4,38.5-72.2l0.9-0.7l0.8-0.8c4.5-4.5,10.5-7,16.7-7c5.7,0,11,2.1,14.8,6l73.2,73.2c8.4,8.4,8,22.6-1,31.5
		l-32.2,32.2l-0.5,0.6c-8.4,9.3-7.4,21.8-2.8,29.9c13.4,24.1,31.7,57.1,66.9,92.3c35.1,35.1,68.1,53.4,92.1,66.7
		c2.4,1.4,7.4,3.6,13.6,3.6c7.3,0,14.1-3.1,19.1-8.8l30.3-30.3c4.5-4.5,10.4-7,16.7-7c5.7,0,11,2.1,14.9,6l73.1,73.2
		C524.1,579.1,520.3,593.4,512.8,602.7z"/>
	<path fill="#0078D7" d="M352,246.1c27,3.1,58.8,19.5,81,41.7c22.4,22.4,38.8,54.5,41.8,81.8c0.9,8.1,7.7,14,15.6,14
		c0.6,0,1.1,0,1.7-0.1c8.6-0.9,14.9-8.7,13.9-17.3c-3.7-34.5-23.2-73.1-50.8-100.6c-27.3-27.3-65.5-46.7-99.6-50.7
		c-8.6-1-16.4,5.2-17.4,13.8C337.2,237.3,343.4,245.1,352,246.1z"/>
	<path fill="#0078D7" d="M337.4,311.9c14.6,1.7,34.8,12.5,48,25.7c13.3,13.4,24.2,33.8,25.8,48.5c0.9,8.1,7.7,14,15.6,14
		c0.6,0,1.1,0,1.7-0.1c8.6-0.9,14.9-8.7,13.9-17.3c-2.7-25.2-19.5-52-34.8-67.3c-15.2-15.2-41.7-31.9-66.7-34.7
		c-8.6-1-16.4,5.2-17.4,13.8C322.6,303.1,328.7,310.9,337.4,311.9z"/>
</g>
</svg>
