<?xml version="1.0" encoding="utf-8"?>
<!-- Generator: Adobe Illustrator 17.1.0, SVG Export Plug-In . SVG Version: 6.00 Build 0)  -->
<!DOCTYPE svg PUBLIC "-//W3C//DTD SVG 1.1//EN" "http://www.w3.org/Graphics/SVG/1.1/DTD/svg11.dtd">
<svg version="1.1" id="Capa_1" xmlns="http://www.w3.org/2000/svg" xmlns:xlink="http://www.w3.org/1999/xlink" x="0px" y="0px"
	 viewBox="0 147.9 595.3 538" enable-background="new 0 147.9 595.3 538" xml:space="preserve">
<g>
	<path fill="#FFFFFF" d="M193.2,387.8l33.2,122.7c5.3,19.5,25.3,34.9,45.5,34.9h264.9c21.6,0,40.2-16.8,42.3-38.3l15.9-161.3
		c1.1-10.8-2.4-21.5-9.5-29.4c-7.1-7.9-17.4-12.4-28.3-12.4H216c-3.6,0-7,0.5-10.3,1.4l-28.5-101c-5.5-19.4-25.6-34.6-45.7-34.6
		H25.8c-9.5,0-17.2,7.7-17.2,17.2c0,9.5,7.7,17.2,17.2,17.2h105.6c4.9,0,11.3,4.8,12.6,9.6L193.2,387.8z M215.7,338.9
		c0-0.2-0.1-0.3-0.1-0.4c0.1,0,0.3,0,0.4,0h341.3c1.2,0,2.2,0.4,2.8,1.1c0.6,0.7,0.9,1.7,0.8,2.9l-15.9,161.3
		c-0.4,3.8-4.3,7.3-8.1,7.3H272c-4.8,0-11.1-4.8-12.3-9.4L215.7,338.9z"/>
	<path fill="#FFFFFF" d="M433.1,618.5c0,29.5,24,53.5,53.5,53.5c29.5,0,53.5-24,53.5-53.5c0-29.5-24-53.5-53.5-53.5
		C457.1,565,433.1,589,433.1,618.5z M467.5,618.5c0-10.5,8.6-19.1,19.1-19.1c10.5,0,19.1,8.6,19.1,19.1c0,10.5-8.6,19.1-19.1,19.1
		C476.1,637.6,467.5,629.1,467.5,618.5z"/>
	<path fill="#FFFFFF" d="M263.4,618.5c0,29.5,24,53.5,53.5,53.5s53.5-24,53.5-53.5c0-29.5-24-53.5-53.5-53.5
		C287.4,565,263.4,589,263.4,618.5z M297.8,618.5c0-10.5,8.6-19.1,19.1-19.1c10.5,0,19.1,8.6,19.1,19.1c0,10.5-8.6,19.1-19.1,19.1
		C306.4,637.6,297.8,629.1,297.8,618.5z"/>
	<path fill="#FFFFFF" d="M0,321.2c0,6.3,5.1,11.5,11.5,11.5h124.2c6.3,0,11.5-5.1,11.5-11.5s-5.1-11.5-11.5-11.5H11.5
		C5.1,309.7,0,314.9,0,321.2z"/>
	<path fill="#FFFFFF" d="M34.4,374.6c0,6.3,5.1,11.5,11.5,11.5h110.4c6.3,0,11.5-5.1,11.5-11.5s-5.1-11.5-11.5-11.5H45.9
		C39.6,363.1,34.4,368.3,34.4,374.6z"/>
	<path fill="#FFFFFF" d="M64.3,428c0,6.3,5.1,11.5,11.5,11.5h94.4c6.3,0,11.5-5.1,11.5-11.5c0-6.3-5.1-11.5-11.5-11.5H75.8
		C69.4,416.5,64.3,421.7,64.3,428z"/>
</g>
</svg>
