<?xml version="1.0" encoding="utf-8"?>
<!-- Generator: Adobe Illustrator 17.1.0, SVG Export Plug-In . SVG Version: 6.00 Build 0)  -->
<!DOCTYPE svg PUBLIC "-//W3C//DTD SVG 1.1//EN" "http://www.w3.org/Graphics/SVG/1.1/DTD/svg11.dtd">
<svg version="1.1" id="Capa_1" xmlns="http://www.w3.org/2000/svg" xmlns:xlink="http://www.w3.org/1999/xlink" x="0px" y="0px"
	 viewBox="0 0 595.3 841.9" enable-background="new 0 0 595.3 841.9" xml:space="preserve">
<g>
	<g>
		<g>
			<path fill="#0078D7" d="M550.9,349.2l-57.7-150c-10.9-28.4-42.8-42.5-71.2-31.6c-0.4,0.2-0.8,0.3-1.2,0.5L132.4,287.7
				c-27.5,11.3-41,42.3-30.4,70.1l7.9,21.2H91.7C62.1,379,38,403,38,432.7v193.5c0,29.7,24.1,53.7,53.7,53.7h365.5
				c29.7,0,53.7-24.1,53.7-53.7V432.7c0-2.9-0.3-5.8-0.8-8.7l10-4C547.9,408.6,561.5,377.2,550.9,349.2z M91.7,396.1h365.5
				c19.3,0.1,35.2,15.1,36.3,34.4H55.4C56.5,411.3,72.4,396.2,91.7,396.1z M178.2,344.3l57.5-28.7l11.8,29.6L190,373.9L178.2,344.3z
				 M493.8,626.2c0,20.2-16.4,36.5-36.5,36.5H91.7c-20.2,0-36.5-16.4-36.5-36.5V516.5h438.6V626.2z M493.8,499.3H55.2v-51.6h438.6
				V499.3z M513.8,404.1l-9,3.6c-9.3-17.7-27.6-28.7-47.5-28.7H218.4l43.9-22c4-2,5.8-6.7,4.1-10.9l-18.2-45.6
				c-1.8-4.4-6.8-6.6-11.2-4.8c-0.2,0.1-0.4,0.2-0.7,0.3l-72.9,36.5c-4,2-5.8,6.7-4.1,10.9l14.2,35.6h-45.2l-10.2-27.2
				c-7.2-19.1,2.1-40.4,20.9-48.2l288.4-119.5c19.3-8,41.4,1.2,49.4,20.4c0.1,0.3,0.2,0.6,0.4,0.9l57.7,150
				C542.1,374.7,532.8,396.2,513.8,404.1z"/>
			<path fill="#0078D7" d="M347.4,638.6c16,9.3,35.8,9.3,51.8,0c24.6,14.3,56.2,5.9,70.5-18.7c14.3-24.6,5.9-56.2-18.7-70.5
				c-7.9-4.6-16.9-7-26-7c-9.1,0-18,2.4-25.8,7c-24.6-14.3-56.2-5.9-70.5,18.7C314.3,592.7,322.7,624.2,347.4,638.6z M413.6,561.6
				c3.7-1.3,7.5-2.1,11.4-2.1c19,0,34.4,15.4,34.4,34.4c0,19-15.4,34.4-34.4,34.4c-3.9,0-7.8-0.8-11.4-2.1
				C428.8,607.4,428.8,580.5,413.6,561.6z M399.2,571.4c11.5,12.8,11.5,32.2,0,45C387.7,603.6,387.7,584.2,399.2,571.4z
				 M373.4,559.5c3.9,0,7.8,0.8,11.4,2.1c-15.2,18.8-15.2,45.8,0,64.6c-3.7,1.3-7.5,2.1-11.4,2.1c-19,0-34.4-15.4-34.4-34.4
				C339,574.9,354.4,559.5,373.4,559.5z"/>
			
				<rect x="436.7" y="286.2" transform="matrix(0.4062 0.9138 -0.9138 0.4062 566.9233 -210.3039)" fill="#0078D7" width="17.2" height="89.8"/>
			
				<rect x="343.6" y="295.1" transform="matrix(-0.908 0.4191 -0.4191 -0.908 907.3354 408.1205)" fill="#0078D7" width="130.5" height="17.2"/>
		</g>
	</g>
</g>
</svg>
