<?xml version="1.0" encoding="utf-8"?>
<!-- Generator: Adobe Illustrator 17.1.0, SVG Export Plug-In . SVG Version: 6.00 Build 0)  -->
<!DOCTYPE svg PUBLIC "-//W3C//DTD SVG 1.1//EN" "http://www.w3.org/Graphics/SVG/1.1/DTD/svg11.dtd">
<svg version="1.1" id="Capa_1" xmlns="http://www.w3.org/2000/svg" xmlns:xlink="http://www.w3.org/1999/xlink" x="0px" y="0px"
	 viewBox="0 0 595.3 841.9" enable-background="new 0 0 595.3 841.9" xml:space="preserve">
<g>
	<g>
		<path fill="#231F20" d="M297.6,137.6c-156.2,0-283.4,127.1-283.4,283.4s127.1,283.4,283.4,283.4S581,577.2,581,420.9
			S453.9,137.6,297.6,137.6z M297.6,677C156.4,677,41.5,562.2,41.5,420.9s114.9-256.1,256.1-256.1s256.1,114.9,256.1,256.1
			S438.8,677,297.6,677z"/>
		<path fill="#231F20" d="M417.5,301.1c-5.3-5.3-14-5.3-19.3,0L297.6,401.7L197,301.1c-5.3-5.3-14-5.3-19.3,0
			c-5.3,5.3-5.3,14,0,19.3l100.6,100.6L177.8,521.5c-5.3,5.3-5.3,14,0,19.3c2.7,2.7,6.2,4,9.6,4s7-1.3,9.6-4l100.6-100.6
			l100.6,100.6c2.7,2.7,6.2,4,9.6,4s7-1.3,9.6-4c5.3-5.3,5.3-14,0-19.3L316.9,420.9l100.6-100.6C422.8,315,422.8,306.4,417.5,301.1z
			"/>
	</g>
</g>
</svg>
