<?xml version="1.0" encoding="utf-8"?>
<!-- Generator: Adobe Illustrator 17.1.0, SVG Export Plug-In . SVG Version: 6.00 Build 0)  -->
<!DOCTYPE svg PUBLIC "-//W3C//DTD SVG 1.1//EN" "http://www.w3.org/Graphics/SVG/1.1/DTD/svg11.dtd">
<svg version="1.1" id="Capa_1" xmlns="http://www.w3.org/2000/svg" xmlns:xlink="http://www.w3.org/1999/xlink" x="0px" y="0px"
	 viewBox="0 0 595.3 841.9" enable-background="new 0 0 595.3 841.9" xml:space="preserve">
<g>
	<g>
		<g>
			<path fill="#0078D7" d="M578.9,355.1c-0.1-0.6-0.2-1.3-0.4-1.9c-0.1-0.6-0.3-1.1-0.5-1.6c-0.3-0.5-0.6-1-0.9-1.4
				c-0.4-0.5-0.8-1-1.2-1.5c-0.2-0.1-0.2-0.3-0.4-0.4l-90.3-70.1v-72.7c0-15.6-12.6-28.2-28.2-28.2H355.1l-40.8-31.6
				c-10.1-7.9-24.2-7.9-34.3,0l-40.8,31.6H137.6c-15.6,0-28.2,12.6-28.2,28.2v72.7l-90.3,70.1c-0.2,0.1-0.2,0.3-0.4,0.4
				c-0.5,0.4-0.9,0.9-1.2,1.5c-0.4,0.4-0.7,0.9-0.9,1.4c-0.2,0.5-0.4,1.1-0.5,1.6c-0.2,0.6-0.3,1.2-0.4,1.9c0,0.2-0.1,0.4-0.1,0.6
				V675c0,6,1.9,11.8,5.5,16.6c0.1,0.1,0.1,0.2,0.1,0.3c0.1,0.1,0.2,0.2,0.3,0.3c5.3,6.9,13.5,11,22.2,11.1h507.1
				c8.8,0,17-4.1,22.3-11.1c0.1-0.1,0.2-0.1,0.3-0.2c0.1-0.1,0.1-0.2,0.1-0.3c3.6-4.8,5.5-10.6,5.5-16.6V355.7
				C579,355.5,578.9,355.3,578.9,355.1z M291.6,160.4c3.3-2.6,7.9-2.6,11.2,0l21.7,16.8H270L291.6,160.4z M46,684.4l245.6-190.8
				c3.3-2.6,7.9-2.6,11.2,0l245.6,190.8H46z M560.2,669.7L314.4,478.8c-10.1-7.8-24.2-7.8-34.3,0L34.3,669.7V370l153.9,119.5
				c4.1,3.2,10,2.4,13.2-1.7c3.2-4.1,2.4-10-1.7-13.2L43.4,353.2l66.1-51.3v72.6c0,5.2,4.2,9.4,9.4,9.4c5.2,0,9.4-4.2,9.4-9.4v-169
				c0-5.2,4.2-9.4,9.4-9.4h319.3c5.2,0,9.4,4.2,9.4,9.4v169c0,5.2,4.2,9.4,9.4,9.4c5.2,0,9.4-4.2,9.4-9.4v-72.6l66.1,51.3
				L394.5,474.9c-2.7,2-4.1,5.4-3.6,8.7c0.4,3.4,2.7,6.2,5.8,7.5c3.1,1.3,6.7,0.7,9.4-1.4L560.2,370L560.2,669.7L560.2,669.7z"/>
			<path fill="#0078D7" d="M410,365.1v-37.6c0-62.2-50.5-112.7-112.7-112.7s-112.7,50.5-112.7,112.7S235,440.2,297.3,440.2
				c5.2,0,9.4-4.2,9.4-9.4c0-5.2-4.2-9.4-9.4-9.4c-51.9,0-93.9-42-93.9-93.9s42-93.9,93.9-93.9s93.9,42,93.9,93.9v37.6
				c0,10.4-8.4,18.8-18.8,18.8s-18.8-8.4-18.8-18.8v-37.6c0-5.2-4.2-9.4-9.4-9.4c-5.2,0-9.4,4.2-9.4,9.4c0,20.7-16.8,37.6-37.6,37.6
				s-37.6-16.8-37.6-37.6s16.8-37.6,37.6-37.6c5.2,0,9.4-4.2,9.4-9.4c0-5.2-4.2-9.4-9.4-9.4c-25.2-0.1-47.4,16.7-54.3,40.9
				s3.1,50.1,24.6,63.4c21.5,13.2,49.1,10.6,67.7-6.4c2,19.9,19.3,34.6,39.2,33.6C394.4,401.5,410,385,410,365.1z"/>
		</g>
	</g>
</g>
</svg>
