<svg width="732" height="732" viewBox="0 0 732 732" fill="none" xmlns="http://www.w3.org/2000/svg">
<path d="M366 0C163.86 0 0 163.85 0 365.97C0 568.1 163.86 732 366 732C568.15 732 732 568.1 732 365.98C732 163.85 568.15 0 366 0ZM459.25 366.03H394.9C394.9 463.09 394.9 582.79 394.9 582.79H308.2C308.2 582.79 308.2 464.3 308.2 366.03H264.84V279.3H307.83V240.13C307.83 204.66 324.71 149.26 399.07 149.26L466.06 149.56V223.8C466.06 223.8 425.32 223.8 417.4 223.8C409.51 223.8 398.24 227.75 398.24 244.63V279.3H467.15L459.25 366.03Z" fill="#1F2A43"/>
</svg>
