<svg width="732" height="733" viewBox="0 0 732 733" fill="none" xmlns="http://www.w3.org/2000/svg">
<path d="M496.36 181.32H235.64C204.56 181.32 179.28 206.6 179.28 237.68V494.41C179.28 525.48 204.57 550.77 235.64 550.77H496.35C527.43 550.77 552.71 525.49 552.71 494.41V237.68C552.72 206.6 527.43 181.32 496.36 181.32ZM366 496.73C293.93 496.73 235.29 438.12 235.29 366.08C235.29 293.99 293.93 235.34 366 235.34C438.07 235.34 496.71 293.99 496.71 366.08C496.71 438.13 438.07 496.73 366 496.73ZM498.48 261.7C487.05 261.7 477.85 252.52 477.85 241.09C477.85 229.74 487.06 220.43 498.48 220.43C509.83 220.43 519.13 229.74 519.13 241.09C519.13 252.52 509.83 261.7 498.48 261.7Z" fill="#1F2A43"/>
<path d="M366 267C311.41 267 267 311.45 267 366.08C267 420.67 311.41 465.09 366 465.09C420.59 465.09 465.01 420.68 465.01 366.08C465 311.45 420.59 267 366 267Z" fill="#1F2A43"/>
<path d="M366 0C163.88 0 0 163.88 0 366.08C0 568.2 163.88 732.08 366 732.08C568.13 732.08 732 568.2 732 366.08C732 163.89 568.12 0 366 0ZM585.09 494.41C585.09 543.34 545.28 583.15 496.35 583.15H235.64C186.71 583.15 146.9 543.34 146.9 494.41V237.68C146.9 188.75 186.71 148.94 235.64 148.94H496.35C545.28 148.94 585.09 188.75 585.09 237.68V494.41Z" fill="#1F2A43"/>
</svg>
