<svg width="732" height="732" viewBox="0 0 732 732" fill="none" xmlns="http://www.w3.org/2000/svg">
<path d="M366.03 0C163.86 0 0 163.9 0 366C0 568.12 163.86 732 366.03 732C568.14 732 732 568.12 732 366C732 163.9 568.14 0 366.03 0ZM580.03 258.22C568.59 274.18 554.47 288.23 538.38 299.68C538.57 303.43 538.67 307.23 538.67 310.99C538.67 328.38 536.57 346.19 532.58 363.85C521.26 414.05 494.06 463.33 452.18 499.95C410.67 536.24 354.74 560.1 285.54 560.1C235.33 560.1 188.58 545.61 149.21 520.78C156.2 521.58 163.19 521.98 170.39 521.98C211.6 521.98 249.41 508.36 279.68 485.39C280.09 485.08 279.87 484.45 279.36 484.43C241.42 483.16 209.51 458.37 198.03 424.47C197.91 424.11 198.22 423.75 198.59 423.82C203.82 424.77 209.13 425.31 214.54 425.31C222.63 425.31 230.53 424.16 238.03 422.21C208.05 416.27 183.9 395.38 172.68 368.06C168.15 357.03 166.9 339.87 166.68 336.02C166.66 335.66 167.04 335.45 167.36 335.63C178.65 341.66 191.45 345.4 205.03 346.1C205.58 346.13 205.81 345.42 205.36 345.11C182.38 329.27 167.34 302.99 167.34 273.32C167.34 257.54 171.65 242.7 179.02 229.9C179.19 229.6 179.61 229.57 179.83 229.83C223.69 282.48 289.04 317.11 362.71 320.77C361.21 314.35 360.41 307.68 360.41 300.81C360.41 252.48 400.27 213.26 449.34 213.26C474.96 213.26 498.09 223.9 514.28 240.91C533.32 237.23 551.25 230.56 567.6 221.45C568.71 220.83 570.02 221.92 569.58 223.1C562.52 242.05 549.01 257.89 531.67 268.08C548.03 266.15 563.72 262.09 578.38 256.15C579.66 255.66 580.83 257.1 580.03 258.22Z" fill="#1F2A43"/>
</svg>
