<?xml version="1.0" encoding="utf-8"?>
<!-- Generator: Adobe Illustrator 17.1.0, SVG Export Plug-In . SVG Version: 6.00 Build 0)  -->
<!DOCTYPE svg PUBLIC "-//W3C//DTD SVG 1.1//EN" "http://www.w3.org/Graphics/SVG/1.1/DTD/svg11.dtd">
<svg version="1.1" id="Capa_1" xmlns="http://www.w3.org/2000/svg" xmlns:xlink="http://www.w3.org/1999/xlink" x="0px" y="0px"
	 viewBox="0 0 595.3 841.9" enable-background="new 0 0 595.3 841.9" xml:space="preserve">
<g>
	<g>
		<path fill="#3176BB" d="M295.8,444.4c0.6,0,1.2,0,2,0c0.2,0,0.5,0,0.7,0c0.4,0,0.9,0,1.2,0c36.6-0.6,66.2-13.5,88-38.1
			c48.1-54.2,40.1-147.1,39.2-156c-3.1-66.6-34.6-98.4-60.6-113.3c-19.4-11.1-42-17.1-67.2-17.6h-0.9c-0.1,0-0.4,0-0.5,0h-0.7
			c-13.9,0-41.1,2.2-67.2,17.1c-26.2,14.9-58.2,46.7-61.3,113.8c-0.9,8.9-8.9,101.8,39.2,156C229.6,430.9,259.2,443.8,295.8,444.4z
			 M202,253.5c0-0.4,0.1-0.7,0.1-1c4.1-89.5,67.7-99.2,94.9-99.2h0.5c0.2,0,0.6,0,1,0c33.7,0.7,91,14.5,94.9,99.2c0,0.4,0,0.7,0.1,1
			c0.1,0.9,8.9,85.8-30.8,130.5c-15.7,17.7-36.7,26.5-64.3,26.7c-0.2,0-0.4,0-0.6,0l0,0c-0.2,0-0.4,0-0.6,0
			c-27.5-0.2-48.6-9-64.2-26.7C193.4,339.5,201.9,254.2,202,253.5z"/>
		<path fill="#3176BB" d="M554.4,598.5c0-0.1,0-0.2,0-0.4c0-1-0.1-2-0.1-3.1c-0.7-24.7-2.4-82.5-56.6-101c-0.4-0.1-0.9-0.2-1.2-0.4
			c-56.3-14.4-103.2-46.8-103.7-47.2c-7.6-5.4-18.1-3.5-23.5,4.1c-5.4,7.6-3.5,18.1,4.1,23.5c2.1,1.5,51.8,36.1,114,52.1
			c29.1,10.4,32.3,41.5,33.2,69.9c0,1.1,0,2.1,0.1,3.1c0.1,11.2-0.6,28.6-2.6,38.6c-20.2,11.5-99.5,51.2-220.2,51.2
			c-120.1,0-199.9-39.8-220.3-51.3c-2-10-2.9-27.3-2.6-38.6c0-1,0.1-2,0.1-3.1c0.9-28.5,4.1-59.6,33.2-69.9
			c62.2-16,111.9-50.7,114-52.1c7.6-5.4,9.5-15.9,4.1-23.5c-5.4-7.6-15.9-9.5-23.5-4.1c-0.5,0.4-47.1,32.8-103.7,47.2
			c-0.5,0.1-0.9,0.2-1.2,0.4c-54.2,18.6-55.8,76.4-56.6,101c0,1.1,0,2.1-0.1,3.1c0,0.1,0,0.2,0,0.4c-0.1,6.5-0.2,39.8,6.4,56.6
			c1.2,3.2,3.5,6,6.5,7.9c3.7,2.5,93.5,59.7,243.8,59.7s240-57.3,243.8-59.7c2.9-1.9,5.2-4.6,6.5-7.9
			C554.7,638.4,554.6,605,554.4,598.5z"/>
	</g>
</g>
</svg>
