<svg width="35" height="34" viewBox="0 0 35 34" fill="none" xmlns="http://www.w3.org/2000/svg">
<path d="M17.59 34.0001C26.9292 34.0001 34.5001 26.4292 34.5001 17.09C34.5001 7.75083 26.9292 0.179932 17.59 0.179932C8.25083 0.179932 0.679932 7.75083 0.679932 17.09C0.679932 26.4292 8.25083 34.0001 17.59 34.0001Z" fill="url(#paint0_linear_80_618)"/>
<path d="M17.59 0.179932C8.94571 0.179932 1.93872 7.18802 1.93872 15.8313C1.93872 24.4745 8.94571 31.4826 17.59 31.4826C26.2344 31.4826 33.2414 24.4745 33.2414 15.8313C33.2414 7.18802 26.2344 0.179932 17.59 0.179932ZM17.59 29.3679C10.1145 29.3679 4.05344 23.3069 4.05344 15.8313C4.05344 8.35567 10.1134 2.29465 17.59 2.29465C25.0667 2.29465 31.1267 8.35567 31.1267 15.8313C31.1267 23.3069 25.0656 29.3679 17.59 29.3679Z" fill="url(#paint1_linear_80_618)"/>
<path d="M24.8 12.8572L20.6957 12.2603L18.8597 8.54112C18.6194 8.05386 18.1332 7.75208 17.59 7.75208C17.0468 7.75208 16.5606 8.05496 16.3203 8.54112L14.4843 12.2603L10.38 12.8572C9.84226 12.9352 9.40439 13.305 9.23648 13.8208C9.06858 14.3366 9.20576 14.893 9.59424 15.2727L12.5649 18.1676L11.8637 22.2555C11.7715 22.791 11.9877 23.3211 12.4267 23.6404C12.6747 23.8204 12.9655 23.9126 13.2574 23.9126C13.4824 23.9126 13.7085 23.8588 13.9181 23.748L17.59 21.8176L21.262 23.748C21.4661 23.8555 21.6943 23.9115 21.9215 23.9115C22.2211 23.9115 22.5086 23.8171 22.7522 23.6404C23.1912 23.3211 23.4074 22.791 23.3152 22.2555L22.614 18.1676L25.5847 15.2727C25.9732 14.8941 26.1103 14.3377 25.9435 13.8208C25.7756 13.3039 25.3378 12.9352 24.8 12.8572Z" fill="url(#paint2_linear_80_618)"/>
<defs>
<linearGradient id="paint0_linear_80_618" x1="0.215056" y1="23.7725" x2="35.5448" y2="10.1842" gradientUnits="userSpaceOnUse">
<stop stop-color="#D67824"/>
<stop offset="0.5019" stop-color="#E79B16"/>
<stop offset="1" stop-color="#D67824"/>
</linearGradient>
<linearGradient id="paint1_linear_80_618" x1="10.5635" y1="19.8932" x2="23.6059" y2="12.3543" gradientUnits="userSpaceOnUse">
<stop stop-color="#F3B310"/>
<stop offset="0.5093" stop-color="#FEEEA7"/>
<stop offset="1" stop-color="#F3B310"/>
</linearGradient>
<linearGradient id="paint2_linear_80_618" x1="10.057" y1="21.5412" x2="26.0174" y2="12.1423" gradientUnits="userSpaceOnUse">
<stop stop-color="#F3B310"/>
<stop offset="0.5093" stop-color="#FEEEA7"/>
<stop offset="1" stop-color="#F3B310"/>
</linearGradient>
</defs>
</svg>
