<svg width="25" height="31" viewBox="0 0 25 31" fill="none" xmlns="http://www.w3.org/2000/svg">
<path d="M13.0407 0.379517C13.1334 0.379517 13.226 0.379517 13.3186 0.379517C13.4607 0.438205 13.6027 0.493805 13.7417 0.561761C14.2666 0.821228 14.7823 1.10232 15.3134 1.34325C15.5265 1.44209 15.7735 1.49769 16.0082 1.51314C16.6072 1.55638 17.2094 1.56874 17.8115 1.58727C18.1573 1.59963 18.4167 1.74172 18.602 2.03825C18.9108 2.52938 19.235 3.01125 19.55 3.49929C19.7074 3.74023 19.9051 3.93483 20.1521 4.08618C20.6462 4.38889 21.134 4.70396 21.6312 5.00358C21.9523 5.19509 22.1036 5.46692 22.1129 5.84067C22.1252 6.39976 22.1592 6.96194 22.1808 7.52103C22.1932 7.80212 22.2642 8.06776 22.397 8.31487C22.6656 8.81836 22.9219 9.32803 23.1998 9.82534C23.3789 10.1497 23.382 10.4493 23.2029 10.7736C22.9219 11.2771 22.6625 11.7899 22.3908 12.2964C22.2519 12.5559 22.1839 12.8308 22.1747 13.1243C22.1561 13.6834 22.1252 14.2455 22.1067 14.8046C22.0944 15.166 21.9369 15.4224 21.625 15.6108C21.1217 15.9104 20.6307 16.2286 20.1305 16.5344C19.8927 16.6796 19.7013 16.868 19.5531 17.0997C19.2319 17.597 18.9077 18.0912 18.5865 18.5854C18.4044 18.8665 18.1481 19.0055 17.8146 19.0179C17.2402 19.0364 16.6628 19.0642 16.0885 19.0858C15.7704 19.0982 15.4709 19.1692 15.1868 19.3175C14.6773 19.5831 14.1585 19.8333 13.649 20.099C13.3248 20.2689 13.016 20.2627 12.6949 20.0928C12.1823 19.8241 11.6666 19.5522 11.1417 19.3082C10.9286 19.2063 10.6878 19.1291 10.4531 19.1074C9.82936 19.058 9.20252 19.0364 8.57568 19.021C8.22367 19.0117 7.95811 18.8758 7.76666 18.5762C7.46405 18.1005 7.146 17.631 6.84339 17.1553C6.66738 16.8804 6.44505 16.661 6.16715 16.4942C5.69161 16.207 5.22535 15.9074 4.74981 15.6232C4.41632 15.4255 4.26193 15.1475 4.25267 14.7645C4.24032 14.1992 4.20944 13.6339 4.18473 13.0687C4.17238 12.8092 4.10754 12.5621 3.98402 12.3304C3.70303 11.8053 3.43129 11.274 3.14721 10.752C2.98355 10.4493 2.98664 10.162 3.1503 9.85932C3.42821 9.35583 3.69068 8.84307 3.96241 8.33649C4.11063 8.06467 4.17856 7.77432 4.19091 7.46543C4.20944 6.90943 4.24032 6.35652 4.25884 5.80052C4.27119 5.45147 4.41941 5.19818 4.71894 5.01594C5.22843 4.70705 5.73176 4.38581 6.23817 4.07383C6.46976 3.93174 6.65812 3.74641 6.80633 3.51783C7.11512 3.03905 7.43626 2.56645 7.73887 2.08149C7.94267 1.75407 8.21749 1.59345 8.60039 1.58418C9.1562 1.57183 9.70893 1.53476 10.2647 1.52241C10.5951 1.51314 10.9008 1.43592 11.1942 1.28456C11.8056 0.978761 12.4263 0.682228 13.0407 0.379517Z" fill="#E2901B"/>
<path d="M5.16792 17.0687C5.50759 17.2695 5.84416 17.4456 6.05414 17.8101C6.30426 18.2456 6.60069 18.6533 6.86934 19.0796C7.24297 19.6696 7.77717 19.9692 8.46885 20.0001C9.05555 20.0248 9.63915 20.0402 10.2258 20.0742C10.371 20.0835 10.5223 20.1175 10.652 20.1792C11.1646 20.4263 11.6741 20.6796 12.1774 20.9484C12.727 21.2418 13.2859 21.2912 13.8695 21.0688C13.8881 21.0627 13.9097 21.0596 13.9282 21.0534C13.9313 21.0534 13.9375 21.0565 13.9529 21.0688C13.9375 21.1121 13.922 21.1553 13.9004 21.2017C12.5356 24.1577 11.1738 27.1107 9.80899 30.0668C9.49094 30.7525 8.72514 30.8266 8.28358 30.2119C7.65366 29.3316 7.01755 28.4513 6.39689 27.5617C6.1653 27.2281 5.86578 27.0953 5.46436 27.1138C4.23847 27.1663 3.0095 27.2065 1.78053 27.2404C1.13517 27.259 0.730655 26.6566 0.996212 26.0759C2.36723 23.0951 3.74441 20.1205 5.1216 17.1429C5.13704 17.1181 5.15248 17.0965 5.16792 17.0687Z" fill="#E2901B"/>
<path d="M20.8419 17.2386C21.2989 18.2271 21.7498 19.2032 22.2006 20.1762C23.1022 22.1284 24.007 24.0805 24.9086 26.0327C25.1495 26.5547 24.8963 27.0922 24.359 27.2127C24.2787 27.2312 24.1954 27.2312 24.1151 27.2312C22.8707 27.191 21.6262 27.1756 20.388 27.0922C19.9804 27.0644 19.7612 27.2374 19.5605 27.5154C18.912 28.4173 18.2697 29.3224 17.6244 30.2243C17.3557 30.6012 16.9296 30.7155 16.5405 30.5301C16.3306 30.4282 16.207 30.2521 16.1113 30.0452C15.3116 28.3092 14.518 26.5733 13.7028 24.8466C13.5577 24.5408 13.5546 24.3029 13.7028 23.9971C14.2524 22.8604 14.7835 21.7144 15.293 20.5592C15.4536 20.1978 15.7192 20.0866 16.065 20.0712C16.7011 20.0372 17.3403 20.0248 17.9733 19.9816C18.5693 19.9414 19.0355 19.6511 19.3659 19.1538C19.6932 18.6626 20.0175 18.1684 20.3324 17.668C20.4529 17.4672 20.6289 17.3498 20.8419 17.2386Z" fill="#E2901B"/>
<path d="M12.575 14.6904V7.34863H11.4676V5.81934H14.1688V14.6904H13.3719H12.575Z" fill="white"/>
</svg>
