<svg width="25" height="31" viewBox="0 0 25 31" fill="none" xmlns="http://www.w3.org/2000/svg">
<path d="M13.0407 0C13.1334 0 13.226 0 13.3186 0C13.4607 0.0586889 13.6027 0.114289 13.7417 0.182244C14.2666 0.441711 14.7823 0.7228 15.3134 0.963733C15.5265 1.06258 15.7735 1.11818 16.0082 1.13362C16.6072 1.17687 17.2094 1.18922 17.8115 1.20776C18.1573 1.22011 18.4167 1.3622 18.602 1.65873C18.9108 2.14987 19.235 2.63173 19.55 3.11978C19.7074 3.36071 19.9051 3.55531 20.1521 3.70667C20.6462 4.00938 21.134 4.32444 21.6312 4.62407C21.9523 4.81558 22.1036 5.0874 22.1129 5.46116C22.1252 6.02024 22.1592 6.58242 22.1808 7.14151C22.1932 7.4226 22.2642 7.68824 22.397 7.93535C22.6656 8.43884 22.9219 8.94851 23.1998 9.44582C23.3789 9.77015 23.382 10.0698 23.2029 10.3941C22.9219 10.8976 22.6625 11.4104 22.3908 11.9169C22.2519 12.1764 22.1839 12.4513 22.1747 12.7448C22.1561 13.3038 22.1252 13.866 22.1067 14.4251C22.0944 14.7865 21.9369 15.0429 21.625 15.2313C21.1217 15.5309 20.6307 15.8491 20.1305 16.1549C19.8927 16.3001 19.7013 16.4885 19.5531 16.7202C19.2319 17.2175 18.9077 17.7117 18.5865 18.2059C18.4044 18.487 18.1481 18.626 17.8146 18.6384C17.2402 18.6569 16.6628 18.6847 16.0885 18.7063C15.7704 18.7187 15.4709 18.7897 15.1868 18.938C14.6773 19.2036 14.1585 19.4538 13.649 19.7195C13.3248 19.8894 13.016 19.8832 12.6949 19.7133C12.1823 19.4446 11.6666 19.1727 11.1417 18.9287C10.9286 18.8268 10.6878 18.7496 10.4531 18.7279C9.82936 18.6785 9.20252 18.6569 8.57568 18.6414C8.22367 18.6322 7.95811 18.4963 7.76666 18.1966C7.46405 17.721 7.146 17.2514 6.84339 16.7758C6.66738 16.5008 6.44505 16.2815 6.16715 16.1147C5.69161 15.8275 5.22535 15.5278 4.74981 15.2437C4.41632 15.046 4.26193 14.768 4.25267 14.385C4.24032 13.8197 4.20944 13.2544 4.18473 12.6892C4.17238 12.4297 4.10754 12.1826 3.98402 11.9509C3.70303 11.4258 3.43129 10.8945 3.14721 10.3725C2.98355 10.0698 2.98664 9.78251 3.1503 9.4798C3.42821 8.97631 3.69068 8.46356 3.96241 7.95698C4.11063 7.68516 4.17856 7.3948 4.19091 7.08591C4.20944 6.52991 4.24032 5.977 4.25884 5.421C4.27119 5.07196 4.41941 4.81867 4.71894 4.63642C5.22843 4.32753 5.73176 4.00629 6.23817 3.69431C6.46976 3.55222 6.65812 3.36689 6.80633 3.13831C7.11512 2.65953 7.43626 2.18693 7.73887 1.70198C7.94267 1.37456 8.21749 1.21393 8.60039 1.20467C9.1562 1.19231 9.70893 1.15524 10.2647 1.14289C10.5951 1.13362 10.9008 1.0564 11.1942 0.905044C11.8056 0.599244 12.4263 0.302711 13.0407 0Z" fill="#00C8C8"/>
<path d="M5.16792 16.6892C5.50759 16.89 5.84416 17.0661 6.05414 17.4305C6.30426 17.8661 6.60069 18.2738 6.86934 18.7001C7.24297 19.2901 7.77717 19.5897 8.46885 19.6206C9.05555 19.6453 9.63915 19.6607 10.2258 19.6947C10.371 19.704 10.5223 19.7379 10.652 19.7997C11.1646 20.0468 11.6741 20.3001 12.1774 20.5689C12.727 20.8623 13.2859 20.9117 13.8695 20.6893C13.8881 20.6831 13.9097 20.6801 13.9282 20.6739C13.9313 20.6739 13.9375 20.677 13.9529 20.6893C13.9375 20.7326 13.922 20.7758 13.9004 20.8221C12.5356 23.7782 11.1738 26.7312 9.80899 29.6872C9.49094 30.373 8.72514 30.4471 8.28358 29.8324C7.65366 28.9521 7.01755 28.0718 6.39689 27.1822C6.1653 26.8486 5.86578 26.7157 5.46436 26.7343C4.23847 26.7868 3.0095 26.8269 1.78053 26.8609C1.13517 26.8794 0.730655 26.2771 0.996212 25.6964C2.36723 22.7156 3.74441 19.741 5.1216 16.7633C5.13704 16.7386 5.15248 16.717 5.16792 16.6892Z" fill="#00C8C8"/>
<path d="M20.8419 16.8591C21.2989 17.8476 21.7498 18.8237 22.2006 19.7967C23.1022 21.7488 24.007 23.701 24.9086 25.6532C25.1495 26.1752 24.8963 26.7127 24.359 26.8332C24.2787 26.8517 24.1954 26.8517 24.1151 26.8517C22.8707 26.8115 21.6262 26.7961 20.388 26.7127C19.9804 26.6849 19.7612 26.8579 19.5605 27.1359C18.912 28.0378 18.2697 28.9429 17.6244 29.8448C17.3557 30.2217 16.9296 30.336 16.5405 30.1506C16.3306 30.0487 16.207 29.8726 16.1113 29.6657C15.3116 27.9297 14.518 26.1938 13.7028 24.4671C13.5577 24.1613 13.5546 23.9234 13.7028 23.6176C14.2524 22.4809 14.7835 21.3349 15.293 20.1797C15.4536 19.8183 15.7192 19.7071 16.065 19.6916C16.7011 19.6577 17.3403 19.6453 17.9733 19.6021C18.5693 19.5619 19.0355 19.2716 19.3659 18.7742C19.6932 18.2831 20.0175 17.7889 20.3324 17.2885C20.4529 17.0877 20.6289 16.9703 20.8419 16.8591Z" fill="#00C8C8"/>
<path d="M16.0906 8.27576C16.0906 8.96326 15.8289 9.6156 15.3055 10.2328C14.8953 10.7133 13.9891 11.5687 12.5867 12.7992H16.0906V14.3109H10.366V13.5551V12.7992C12.2762 11.0609 13.4461 9.94763 13.8758 9.45935C14.3055 8.97107 14.5203 8.50818 14.5203 8.07068C14.5203 7.68787 14.3953 7.37537 14.1453 7.13318C13.8953 6.89099 13.575 6.7699 13.1844 6.7699C12.7664 6.7699 12.4383 6.92224 12.2 7.22693C11.9656 7.52771 11.8485 7.94568 11.8485 8.48083H10.2547C10.2547 7.50037 10.5301 6.71912 11.0809 6.13708C11.6317 5.55115 12.366 5.25818 13.284 5.25818C14.1082 5.25818 14.782 5.53943 15.3055 6.10193C15.8289 6.66443 16.0906 7.38904 16.0906 8.27576Z" fill="white"/>
</svg>
