<svg width="19" height="20" viewBox="0 0 19 20" fill="none" xmlns="http://www.w3.org/2000/svg">
<circle cx="9.5" cy="10" r="9.5" fill="#15A415"/>
<path d="M14.6818 7.29271C14.4056 7.05375 14.1439 6.83501 13.8924 6.60635C13.7894 6.51297 13.7297 6.53319 13.6416 6.62436C12.0422 8.28385 10.4397 9.94112 8.83751 11.5984C8.51926 11.9274 8.20063 12.2561 7.91202 12.5539C7.67919 12.3557 7.44636 12.1782 7.23887 11.9771C6.60433 11.3624 5.9811 10.7374 5.34773 10.1213C5.30366 10.0783 5.17925 10.0389 5.15195 10.0617C4.87153 10.2952 4.60321 10.5418 4.31812 10.797C5.51699 11.9785 6.6952 13.1399 7.89057 14.3181C10.1612 11.9693 12.4096 9.64334 14.6818 7.29271Z" fill="white"/>
</svg>
