<svg width="25" height="31" viewBox="0 0 25 31" fill="none" xmlns="http://www.w3.org/2000/svg">
<path d="M12.1272 0C12.2198 0 12.3124 0 12.4051 0C12.5471 0.0586889 12.6892 0.114289 12.8281 0.182244C13.353 0.441711 13.8687 0.7228 14.3998 0.963733C14.6129 1.06258 14.8599 1.11818 15.0946 1.13362C15.6937 1.17687 16.2958 1.18922 16.8979 1.20776C17.2438 1.22011 17.5031 1.3622 17.6884 1.65873C17.9972 2.14987 18.3214 2.63173 18.6364 3.11978C18.7939 3.36071 18.9915 3.55531 19.2385 3.70667C19.7326 4.00938 20.2205 4.32444 20.7176 4.62407C21.0388 4.81558 21.1901 5.0874 21.1993 5.46116C21.2117 6.02024 21.2456 6.58242 21.2673 7.14151C21.2796 7.4226 21.3506 7.68824 21.4834 7.93535C21.7521 8.43884 22.0083 8.94851 22.2863 9.44582C22.4653 9.77015 22.4684 10.0698 22.2893 10.3941C22.0083 10.8976 21.749 11.4104 21.4772 11.9169C21.3383 12.1764 21.2703 12.4513 21.2611 12.7448C21.2426 13.3038 21.2117 13.866 21.1931 14.4251C21.1808 14.7865 21.0233 15.0429 20.7114 15.2313C20.2081 15.5309 19.7171 15.8491 19.2169 16.1549C18.9791 16.3001 18.7877 16.4885 18.6395 16.7202C18.3183 17.2175 17.9941 17.7117 17.673 18.2059C17.4908 18.487 17.2345 18.626 16.901 18.6384C16.3267 18.6569 15.7492 18.6847 15.1749 18.7063C14.8568 18.7187 14.5573 18.7897 14.2732 18.938C13.7637 19.2036 13.245 19.4538 12.7355 19.7195C12.4112 19.8894 12.1025 19.8832 11.7813 19.7133C11.2687 19.4446 10.7531 19.1727 10.2281 18.9287C10.0151 18.8268 9.77421 18.7496 9.53953 18.7279C8.91578 18.6785 8.28895 18.6569 7.66211 18.6414C7.31009 18.6322 7.04454 18.4963 6.85309 18.1966C6.55048 17.721 6.23243 17.2514 5.92981 16.7758C5.75381 16.5008 5.53148 16.2815 5.25357 16.1147C4.77804 15.8275 4.31177 15.5278 3.83624 15.2437C3.50275 15.046 3.34836 14.768 3.33909 14.385C3.32674 13.8197 3.29586 13.2544 3.27116 12.6892C3.25881 12.4297 3.19396 12.1826 3.07045 11.9509C2.78945 11.4258 2.51772 10.8945 2.23364 10.3725C2.06998 10.0698 2.07307 9.78251 2.23672 9.4798C2.51463 8.97631 2.7771 8.46356 3.04883 7.95698C3.19705 7.68516 3.26498 7.3948 3.27734 7.08591C3.29586 6.52991 3.32674 5.977 3.34527 5.421C3.35762 5.07196 3.50584 4.81867 3.80536 4.63642C4.31486 4.32753 4.81818 4.00629 5.32459 3.69431C5.55618 3.55222 5.74454 3.36689 5.89276 3.13831C6.20155 2.65953 6.52269 2.18693 6.8253 1.70198C7.0291 1.37456 7.30392 1.21393 7.68681 1.20467C8.24263 1.19231 8.79536 1.15524 9.35117 1.14289C9.68157 1.13362 9.98727 1.0564 10.2806 0.905044C10.892 0.599244 11.5127 0.302711 12.1272 0Z" fill="#E63950"/>
<path d="M4.25435 16.6892C4.59401 16.89 4.93059 17.0661 5.14057 17.4305C5.39068 17.8661 5.68712 18.2738 5.95576 18.7001C6.32939 19.2901 6.8636 19.5897 7.55528 19.6206C8.14197 19.6453 8.72558 19.6607 9.31227 19.6947C9.4574 19.704 9.60871 19.7379 9.7384 19.7997C10.251 20.0468 10.7605 20.3001 11.2638 20.5689C11.8134 20.8623 12.3724 20.9117 12.956 20.6893C12.9745 20.6831 12.9961 20.6801 13.0146 20.6739C13.0177 20.6739 13.0239 20.677 13.0393 20.6893C13.0239 20.7326 13.0085 20.7758 12.9868 20.8221C11.622 23.7782 10.2603 26.7312 8.89541 29.6872C8.57736 30.373 7.81157 30.4471 7.37001 29.8324C6.74008 28.9521 6.10398 28.0718 5.48332 27.1822C5.25173 26.8486 4.95221 26.7157 4.55078 26.7343C3.3249 26.7868 2.09593 26.8269 0.866956 26.8609C0.221592 26.8794 -0.182919 26.2771 0.0826378 25.6964C1.45365 22.7156 2.83084 19.741 4.20803 16.7633C4.22347 16.7386 4.23891 16.717 4.25435 16.6892Z" fill="#E63950"/>
<path d="M19.9284 16.8591C20.3854 17.8476 20.8362 18.8237 21.287 19.7967C22.1887 21.7488 23.0934 23.701 23.9951 25.6532C24.2359 26.1752 23.9827 26.7127 23.4454 26.8332C23.3651 26.8517 23.2818 26.8517 23.2015 26.8517C21.9571 26.8115 20.7127 26.7961 19.4744 26.7127C19.0668 26.6849 18.8476 26.8579 18.6469 27.1359C17.9984 28.0378 17.3562 28.9429 16.7108 29.8448C16.4422 30.2217 16.016 30.336 15.627 30.1506C15.417 30.0487 15.2935 29.8726 15.1977 29.6657C14.398 27.9297 13.6044 26.1938 12.7892 24.4671C12.6441 24.1613 12.641 23.9234 12.7892 23.6176C13.3388 22.4809 13.87 21.3349 14.3795 20.1797C14.54 19.8183 14.8056 19.7071 15.1514 19.6916C15.7875 19.6577 16.4267 19.6453 17.0597 19.6021C17.6557 19.5619 18.122 19.2716 18.4524 18.7742C18.7797 18.2831 19.1039 17.7889 19.4189 17.2885C19.5393 17.0877 19.7153 16.9703 19.9284 16.8591Z" fill="#E63950"/>
<path d="M13.0677 7.61365C13.0677 7.34412 12.9993 7.13708 12.8626 6.99255C12.7259 6.84412 12.5325 6.7699 12.2825 6.7699C12.0521 6.7699 11.8646 6.84216 11.72 6.98669C11.5794 7.13123 11.5013 7.32458 11.4857 7.56677H9.87433C9.89386 6.8949 10.1263 6.34216 10.5716 5.90857C11.0169 5.47498 11.5716 5.25818 12.2357 5.25818C12.9505 5.25818 13.5384 5.48083 13.9993 5.92615C14.4603 6.37146 14.6907 6.93982 14.6907 7.63123C14.6907 8.26794 14.4505 8.79138 13.97 9.20154L13.9407 9.22498C14.1243 9.31091 14.2903 9.42029 14.4388 9.5531C15.0091 10.0297 15.2943 10.639 15.2943 11.3812C15.2943 12.2836 15.0091 13.0277 14.4388 13.6136C13.8724 14.1957 13.1478 14.4867 12.265 14.4867C11.4134 14.4867 10.7122 14.2269 10.1614 13.7074C9.61457 13.1879 9.30792 12.4945 9.24152 11.6273H10.8528C10.9153 12.0765 11.0657 12.4164 11.304 12.6469C11.5423 12.8734 11.8665 12.9867 12.2767 12.9867C12.7142 12.9867 13.056 12.8578 13.3021 12.6C13.5482 12.3422 13.6712 11.9867 13.6712 11.5336C13.6712 11.1078 13.5286 10.7582 13.2435 10.4847C12.9622 10.2113 12.5989 10.0746 12.1536 10.0746H11.6614V8.56287H12.0364C12.3724 8.56287 12.6282 8.48083 12.804 8.31677C12.9798 8.15662 13.0677 7.92224 13.0677 7.61365Z" fill="white"/>
</svg>
