<svg width="31" height="25" viewBox="0 0 31 25" fill="none" xmlns="http://www.w3.org/2000/svg">
<path d="M30.7783 2.95768C29.9644 2.21041 29.1929 1.52637 28.4514 0.811286C28.1479 0.519275 27.972 0.582507 27.7122 0.86762C22.9975 6.05714 18.2736 11.2398 13.5508 16.4224C12.6127 17.4513 11.6734 18.4791 10.8227 19.4103C10.1364 18.7906 9.45002 18.2354 8.8384 17.6065C6.96793 15.6843 5.13079 13.7299 3.26376 11.8031C3.13385 11.6686 2.76711 11.5456 2.68663 11.6168C1.86004 12.3469 1.06908 13.1183 0.228683 13.9161C3.7627 17.6111 7.2358 21.2428 10.7595 24.9275C17.4527 17.5824 24.0805 10.3085 30.7783 2.95768Z" fill="white"/>
</svg>
